<svg width="20" height="30" viewBox="0 0 25 37" fill="none" xmlns="http://www.w3.org/2000/svg">
<path d="M12.5371 0L25 13.5065L12.5371 37L0 13.5065L12.5371 0Z" fill="#AD976E"/>
<path d="M2.63179 16.0099L12.5371 24.311L22.4477 16.0099L12.5371 34.5688L2.63179 16.0099Z" fill="#60269E"/>
<path fill-rule="evenodd" clip-rule="evenodd" d="M11.1983 26.6508H10.3151L10.1915 27.0692H9.38959L10.3416 24.5447H11.2L12.1538 27.0692H11.3325L11.2036 26.6508H11.1983ZM11.0358 26.1093L10.7549 25.1987L10.4812 26.1093H11.0358Z" fill="white"/>
<path d="M1.48544 13.5064L12.5371 22.9239L23.5923 13.5064L12.5371 1.55753L1.48544 13.5064Z" fill="white"/>
<path fill-rule="evenodd" clip-rule="evenodd" d="M12.5689 20.6069C12.7278 20.6175 13.5138 20.6069 13.528 19.2006C13.528 19.1742 14.4447 19.2006 14.4447 19.2006C14.4447 19.2006 13.6075 18.079 13.6075 17.6782C13.6075 17.6641 14.5948 17.6782 14.5948 17.6782V17.2158H13.6075C13.6075 17.2158 13.6304 15.6213 14.7485 14.5296C15.6987 13.5997 16.2975 13.4977 16.5624 13.7087C17.0694 14.113 16.3576 14.3362 16.1226 14.6158C15.7023 15.1133 15.8118 15.9149 16.1933 15.9167C16.2357 15.9167 16.2304 15.4824 16.7232 15.2557C17.1618 15.079 17.6407 15.0249 18.1079 15.0992C18.9628 15.1889 19.7506 14.2431 19.5952 12.9422C19.4592 11.8013 18.7226 11.4584 18.1185 11.3266C17.3308 11.1508 15.8506 11.1824 14.9799 12.4236C14.3352 13.3395 14.4147 13.1971 13.6869 14.3679C13.399 14.8373 14.4305 12.0825 15.1 11.2369C15.7164 10.4634 15.6193 10.4845 16.0467 10.0169L16.7356 9.86397V8.9551L15.8966 9.10628L15.7464 9.71279C15.3615 10.1427 15.0006 10.5935 14.6655 11.0629C14.1356 11.7942 13.4538 13.2973 13.4538 13.2973C13.4538 13.2973 14.7926 9.44381 14.6637 7.71046C14.5577 6.34627 13.9572 5.13679 12.5777 3.97125C11.1929 5.13679 10.5924 6.34627 10.4935 7.71046C10.3628 9.44381 11.6963 13.2973 11.6963 13.2973C11.6963 13.2973 11.0075 11.7942 10.4864 11.0629C10.1513 10.5935 9.79041 10.1427 9.40547 9.71279L9.25533 9.10628L8.41635 8.9551V9.86045L9.10343 10.0134C9.53264 10.481 9.4355 10.4599 10.0537 11.2334C10.7196 12.072 11.7511 14.8338 11.4561 14.3644C10.7319 13.1936 10.8097 13.336 10.1667 12.4201C9.29596 11.1789 7.81581 11.1455 7.03158 11.3231C6.42574 11.4549 5.68921 11.7977 5.54967 12.9387C5.396 14.2396 6.1873 15.1853 7.04394 15.0957C7.51067 15.022 7.98875 15.076 8.42694 15.2522C8.9162 15.4789 8.90914 15.9131 8.95683 15.9131C9.34011 15.9131 9.44786 15.1098 9.03101 14.6122C8.7908 14.3327 8.08252 14.1095 8.59121 13.7051C8.84909 13.4942 9.45492 13.5961 10.4017 14.5261C11.5179 15.6178 11.5427 17.2123 11.5427 17.2123H10.5571V17.6746C10.5571 17.6746 11.5427 17.6606 11.5427 17.6746C11.5427 18.0755 10.7037 19.197 10.7037 19.197C10.7037 19.197 11.6169 19.1707 11.6169 19.197C11.6363 20.6034 12.4205 20.614 12.583 20.6034L12.5689 20.6069Z" fill="#E1251B"/>
<path d="M11.7494 28.0555H13.6552V28.5882H12.523V29.0206H13.4874V29.5199H12.523V30.5378H11.7494V28.0555Z" fill="#E1251B"/>
<path d="M15.0894 26.0548L15.7659 26.2588C15.7285 26.4279 15.6556 26.5872 15.5521 26.7264C15.4581 26.852 15.3327 26.9508 15.1883 27.0129C15.0138 27.0849 14.826 27.1191 14.6372 27.1131C14.4092 27.1213 14.1821 27.0806 13.9713 26.9936C13.786 26.903 13.6318 26.7599 13.528 26.5822C13.395 26.3523 13.3301 26.0896 13.3408 25.8246C13.3289 25.6529 13.3521 25.4806 13.4088 25.3181C13.4656 25.1555 13.5548 25.0061 13.671 24.8788C13.7954 24.7627 13.9422 24.6732 14.1026 24.6157C14.263 24.5583 14.4335 24.5341 14.6037 24.5448C14.8621 24.5317 15.1184 24.5973 15.3384 24.7329C15.5316 24.8809 15.6731 25.0857 15.7429 25.3183L15.0611 25.4677C15.0469 25.408 15.0217 25.3514 14.9869 25.3007C14.9453 25.2456 14.8923 25.2001 14.8315 25.1671C14.7659 25.136 14.694 25.1204 14.6213 25.1214C14.5413 25.1179 14.4618 25.1351 14.3906 25.1715C14.3193 25.2079 14.2589 25.2621 14.2151 25.3288C14.1345 25.478 14.0978 25.6468 14.1091 25.8158C14.0897 26.0144 14.1362 26.2138 14.2416 26.3836C14.2848 26.4342 14.3392 26.4743 14.4004 26.5008C14.4616 26.5273 14.5281 26.5395 14.5948 26.5365C14.6561 26.5413 14.7177 26.5328 14.7753 26.5116C14.833 26.4903 14.8853 26.4569 14.9286 26.4135C15.0122 26.3119 15.0687 26.1909 15.0929 26.0619L15.0894 26.0548Z" fill="white"/>
</svg>
