<svg width="42" height="50" viewBox="0 0 42 50" fill="none" xmlns="http://www.w3.org/2000/svg">
<path d="M18.9033 27.9211L12.5781 21.9003L9.88397 24.7307L19.1225 33.5248L33.1995 17.8515L30.2924 15.2404L18.9033 27.9211Z" fill="#4B4B4B"/>
<path d="M37.0643 6.36641C32.3278 5.51758 27.9659 2.93086 25.7874 1.46455C24.364 0.506445 22.7086 0 21.0001 0C19.2916 0 17.6361 0.506445 16.2128 1.46445C14.0343 2.93076 9.67235 5.51758 4.93583 6.36641C2.13055 6.86914 0.0944214 9.29629 0.0944214 12.1376V23.9257C0.0944214 27.8199 1.18397 31.616 3.33261 35.2088C5.01366 38.0194 7.34276 40.7057 10.2553 43.1929C15.1524 47.375 20.0017 49.5558 20.2057 49.6466L21 50L21.7943 49.6466C21.9983 49.5559 26.8475 47.375 31.7447 43.1929C34.6571 40.7057 36.9864 38.0194 38.6674 35.2088C40.8162 31.6161 41.9056 27.8199 41.9056 23.9257V12.1377C41.9058 9.29629 39.8696 6.86914 37.0643 6.36641ZM37.9981 23.9258C37.9981 29.7314 35.0652 35.1929 29.2807 40.1586C25.9182 43.0451 22.5043 44.9266 21.0003 45.6901C17.5431 43.9335 4.00204 36.2625 4.00204 23.9258V12.1377C4.00204 11.1909 4.68466 10.3813 5.62518 10.2128C11.0664 9.2377 15.9614 6.34404 18.3948 4.70615C19.1709 4.18369 20.0718 3.90752 21.0001 3.90752C21.9284 3.90752 22.8294 4.18369 23.6054 4.70605C26.0389 6.34404 30.9338 9.2375 36.375 10.2126C37.3154 10.3812 37.9981 11.1907 37.9981 12.1375V23.9258Z" fill="#4B4B4B"/>
</svg>
